<?xml version="1.0" encoding="UTF-8" standalone="no"?>
<!-- Created with Inkscape (http://www.inkscape.org/) -->

<svg
   width="47.625008mm"
   height="25.400026mm"
   viewBox="0 0 47.625008 25.400026"
   version="1.1"
   id="svg1"
   xml:space="preserve"
   inkscape:version="1.4.2 (1:1.4.2+202505120737+ebf0e940d0)"
   sodipodi:docname="logo.svg"
   xmlns:inkscape="http://www.inkscape.org/namespaces/inkscape"
   xmlns:sodipodi="http://sodipodi.sourceforge.net/DTD/sodipodi-0.dtd"
   xmlns="http://www.w3.org/2000/svg"
   xmlns:svg="http://www.w3.org/2000/svg"><sodipodi:namedview
     id="namedview1"
     pagecolor="#ffffff"
     bordercolor="#999999"
     borderopacity="1"
     inkscape:showpageshadow="2"
     inkscape:pageopacity="0"
     inkscape:pagecheckerboard="0"
     inkscape:deskcolor="#d1d1d1"
     inkscape:document-units="mm"
     inkscape:zoom="1.1973064"
     inkscape:cx="146.16142"
     inkscape:cy="96.466536"
     inkscape:window-width="1280"
     inkscape:window-height="747"
     inkscape:window-x="0"
     inkscape:window-y="816"
     inkscape:window-maximized="0"
     inkscape:current-layer="layer1" /><defs
     id="defs1" /><g
     inkscape:label="Capa 1"
     inkscape:groupmode="layer"
     id="layer1"
     transform="translate(-101.40381,-127.69671)"><path
       id="path33"
       style="opacity:1;fill:none;fill-opacity:1;stroke:#f2f2f2;stroke-width:0.538968;stroke-linecap:round;stroke-linejoin:round;stroke-dasharray:none;stroke-dashoffset:0;stroke-opacity:1;paint-order:normal"
       d="m 101.67329,152.72446 h 2.03265 l 2.91129,-5.79025 h 1.83815 l 9.39027,-9.5143 1.8152,1.83917 11.1457,-11.2929 12.55011,12.71587 h 5.40267 m -41.98911,6.20135 c -0.0811,0 -0.13216,0.0172 -0.15297,0.0508 -0.0188,0.0317 -0.0456,0.0822 -0.081,0.1518 l -2.81166,5.46969 c -0.0269,0.0506 -0.0374,0.0935 -0.0312,0.12936 0.004,0.0337 0.0207,0.0592 0.0499,0.0761 0.0291,0.0168 0.0636,0.0252 0.10316,0.0252 0.0791,0 0.13295,-0.0139 0.16207,-0.0412 0.0291,-0.0274 0.0647,-0.0831 0.10634,-0.1674 l 1.41353,-2.80434 h 1.31037 l 0.22175,2.82635 c 0.004,0.0463 0.0168,0.0897 0.0375,0.12977 0.0229,0.0379 0.0746,0.0569 0.15574,0.0569 0.0686,0 0.11467,-0.0168 0.13757,-0.0505 0.0229,-0.0337 0.0312,-0.0814 0.025,-0.14258 l -0.46486,-5.57702 c -0.002,-0.0422 -0.0169,-0.075 -0.0439,-0.0981 -0.025,-0.0231 -0.0706,-0.0348 -0.13716,-0.0348 z m 4.22282,0.0152 c -0.0328,0.002 -0.0633,0.009 -0.0913,0.0229 -0.0354,0.019 -0.0572,0.055 -0.0656,0.10774 l -0.45259,2.57644 h -0.66132 c -0.28915,0 -0.54828,0.0772 -0.77711,0.23108 -0.22676,0.15386 -0.41835,0.37089 -0.57436,0.65122 -0.15394,0.27823 -0.26496,0.60595 -0.33362,0.98325 -0.0748,0.42154 -0.0573,0.75037 0.053,0.98643 0.11233,0.23397 0.28916,0.35084 0.53048,0.35084 0.25586,0 0.50959,-0.13183 0.76131,-0.39529 0.2517,-0.26347 0.48676,-0.62577 0.70518,-1.08737 l -0.0339,0.18944 c -0.0457,0.26347 -0.0655,0.48926 -0.0592,0.67685 0.009,0.18759 0.0468,0.33067 0.11542,0.42975 0.0687,0.099 0.17143,0.14858 0.30873,0.14858 0.15601,0 0.28936,-0.0345 0.39962,-0.10414 0.11026,-0.0696 0.20978,-0.17806 0.29924,-0.3256 0.0499,-0.0843 0.0938,-0.16044 0.13123,-0.22789 0.0395,-0.0674 0.0592,-0.11696 0.0592,-0.14858 0,-0.0548 -0.0137,-0.0959 -0.0407,-0.12337 -0.027,-0.0274 -0.0612,-0.0408 -0.10277,-0.0408 -0.0417,0 -0.079,0.0156 -0.11227,0.0473 -0.0312,0.0316 -0.0686,0.0855 -0.11225,0.1614 l -0.0534,0.0885 c -0.0708,0.12225 -0.13722,0.20964 -0.19963,0.26233 -0.0604,0.0527 -0.12572,0.0789 -0.19645,0.0789 -0.0583,0 -0.0956,-0.0452 -0.11226,-0.13578 -0.0146,-0.0906 -0.0179,-0.19694 -0.01,-0.31919 0.0103,-0.12435 0.023,-0.23396 0.0375,-0.32881 l 0.79253,-4.55934 c 0.0104,-0.0611 -7.6e-4,-0.10845 -0.0343,-0.14218 -0.0333,-0.0337 -0.0794,-0.0516 -0.13755,-0.0537 -0.0114,-7.8e-4 -0.0223,-0.002 -0.0333,-7.8e-4 z m 25.14004,7.8e-4 c -0.0832,0 -0.13927,0.018 -0.16839,0.0538 -0.0291,0.0337 -0.0499,0.0866 -0.0624,0.1582 l -0.95462,5.46327 c -0.009,0.0612 7.7e-4,0.10959 0.0281,0.14538 0.0291,0.0337 0.078,0.0505 0.14665,0.0505 0.0832,0 0.13493,-0.0211 0.15574,-0.0632 0.0229,-0.0422 0.0387,-0.0862 0.0471,-0.13257 l 0.48659,-2.80112 c 0.44934,-0.004 0.86553,-0.0232 1.2483,-0.0568 0.38486,-0.0337 0.72306,-0.0982 1.0143,-0.19304 0.29334,-0.0969 0.52906,-0.23715 0.70795,-0.42052 0.17892,-0.18549 0.28817,-0.42981 0.3277,-0.73333 0.0457,-0.34145 -0.0466,-0.61965 -0.2775,-0.83465 -0.22882,-0.2171 -0.57421,-0.37733 -1.03603,-0.48061 -0.45974,-0.10328 -1.01431,-0.15499 -1.66335,-0.15499 z m 10.21335,0 c -0.0582,0 -0.10386,0.019 -0.13717,0.0569 -0.0333,0.0358 -0.0563,0.0893 -0.0688,0.161 l -0.95184,5.46648 c -0.006,0.0422 -0.006,0.0771 0.003,0.10454 0.0104,0.0274 0.0269,0.0485 0.0499,0.0632 0.0229,0.0126 0.0503,0.0188 0.0814,0.0188 0.0665,0 0.11939,-0.0135 0.15891,-0.0408 0.0416,-0.0295 0.0697,-0.0834 0.0842,-0.16139 l 0.0842,-0.48381 c 0.16018,-0.43209 0.32048,-0.79151 0.48067,-1.07815 0.16018,-0.28666 0.31615,-0.51315 0.46801,-0.67965 0.15186,-0.16652 0.29239,-0.2845 0.42138,-0.35406 0.13106,-0.0717 0.24532,-0.10734 0.34311,-0.10734 0.0748,0 0.12375,0.0284 0.14664,0.0853 0.0229,0.0569 0.0344,0.11811 0.0344,0.18344 0,0.14755 -0.0758,0.29899 -0.2277,0.45498 -0.14976,0.15386 -0.37115,0.32175 -0.66446,0.50303 -0.0541,0.0294 -0.0918,0.0618 -0.11267,0.0977 -0.0207,0.0337 -0.0312,0.0687 -0.0312,0.10453 0,0.0295 0.0125,0.0696 0.0375,0.12016 0.0271,0.0506 0.0665,0.11464 0.1186,0.19264 l 0.70518,1.01808 c 0.0353,0.0506 0.0782,0.0873 0.12808,0.11054 0.052,0.0231 0.11237,0.0348 0.18103,0.0348 0.15601,0 0.2879,-0.0349 0.39608,-0.10454 0.11025,-0.0696 0.21125,-0.17807 0.30279,-0.3256 0.0479,-0.0843 0.0913,-0.16004 0.13083,-0.22748 0.0395,-0.0674 0.0592,-0.11698 0.0592,-0.1486 0,-0.0548 -0.0144,-0.0959 -0.0434,-0.12336 -0.0269,-0.0274 -0.0616,-0.0408 -0.10319,-0.0408 -0.0395,0 -0.0758,0.0156 -0.10909,0.0473 -0.0333,0.0316 -0.0718,0.0855 -0.11542,0.1614 l -0.0498,0.0885 c -0.0708,0.12226 -0.13937,0.20965 -0.20594,0.26233 -0.0645,0.0527 -0.13313,0.0789 -0.20595,0.0789 -0.0291,0 -0.0499,-0.0105 -0.0624,-0.0317 l -0.75223,-1.07175 c 0.2205,-0.13068 0.40382,-0.2636 0.54945,-0.3985 0.14561,-0.13489 0.25489,-0.2729 0.32768,-0.41413 0.0728,-0.14122 0.1091,-0.2854 0.1091,-0.43294 0,-0.16019 -0.0197,-0.27816 -0.0592,-0.35405 -0.0374,-0.0758 -0.0884,-0.12537 -0.15298,-0.14858 -0.0624,-0.0253 -0.13106,-0.038 -0.20594,-0.038 -0.28708,0 -0.57533,0.11798 -0.86448,0.35405 -0.28709,0.23396 -0.54798,0.59118 -0.78306,1.07174 l 0.67396,-3.86967 c 0.0146,-0.0822 0.006,-0.13721 -0.025,-0.16462 -0.0291,-0.0274 -0.0769,-0.0408 -0.14349,-0.0408 z m -10.0916,0.3256 c 0.45975,0.006 0.85184,0.0358 1.17636,0.0885 0.32661,0.0527 0.59007,0.12732 0.78978,0.22429 0.20179,0.0948 0.34517,0.20994 0.43046,0.34483 0.0854,0.13277 0.11766,0.28352 0.0968,0.45217 -0.027,0.22763 -0.12194,0.41297 -0.2842,0.5563 -0.16225,0.14122 -0.37536,0.25082 -0.63957,0.32881 -0.2621,0.078 -0.56078,0.13299 -0.8957,0.16461 -0.33285,0.0296 -0.68649,0.0463 -1.06094,0.0505 z m -29.53757,0.0885 v 0.90754 l 0.0964,1.21393 h -1.1139 l 0.64273,-1.27402 z m 16.6193,0.3224 c -0.0417,0 -0.08,0.0139 -0.11542,0.0412 -0.0333,0.0253 -0.0553,0.0653 -0.0656,0.12014 l -0.31544,1.80828 h -0.71744 c -0.077,0 -0.12799,0.015 -0.15298,0.0445 -0.027,0.0274 -0.0407,0.0652 -0.0407,0.11375 0,0.0506 0.0148,0.0906 0.0439,0.12015 0.0271,0.0295 0.0781,0.0445 0.15296,0.0445 h 0.65815 l -0.27431,1.58679 c -0.0354,0.19813 -0.0562,0.37551 -0.0625,0.53147 -0.004,0.15387 0.008,0.2842 0.0344,0.39169 0.0291,0.1075 0.0758,0.18982 0.14032,0.24672 0.0645,0.0568 0.14857,0.0853 0.25258,0.0853 0.15603,0 0.289,-0.0345 0.39925,-0.10414 0.11025,-0.0696 0.21017,-0.17807 0.29962,-0.32561 0.0479,-0.0843 0.0917,-0.16043 0.13124,-0.22787 0.0395,-0.0675 0.0593,-0.11698 0.0593,-0.14859 0,-0.0548 -0.0137,-0.0959 -0.0407,-0.12336 -0.0269,-0.0274 -0.0611,-0.0408 -0.10277,-0.0408 -0.0417,0 -0.079,0.0156 -0.11226,0.0473 -0.0333,0.0317 -0.0711,0.0855 -0.11265,0.16141 l -0.053,0.0885 c -0.0708,0.12226 -0.13721,0.20965 -0.19963,0.26234 -0.0604,0.0527 -0.1268,0.0789 -0.19961,0.0789 -0.0437,0 -0.0749,-0.0284 -0.0937,-0.0853 -0.0188,-0.059 -0.0292,-0.13146 -0.0313,-0.21787 0,-0.0885 0.005,-0.17921 0.0125,-0.27195 0.0104,-0.0927 0.0215,-0.17394 0.034,-0.2435 l 0.29646,-1.69173 h 0.81468 c 0.077,0 0.12805,-0.0146 0.15298,-0.044 0.027,-0.0295 0.0403,-0.0696 0.0403,-0.12014 0,-0.0485 -0.0133,-0.0864 -0.0403,-0.11374 -0.025,-0.0295 -0.076,-0.0445 -0.15298,-0.0445 h -0.76131 l 0.30555,-1.75782 c 0.009,-0.0443 0.005,-0.0821 -0.0122,-0.11374 -0.0146,-0.0316 -0.0375,-0.0561 -0.0688,-0.0728 -0.0291,-0.0168 -0.0633,-0.0253 -0.10277,-0.0253 z m -6.31584,1.91281 c -0.21427,0 -0.41912,0.0623 -0.61466,0.18663 -0.19346,0.12226 -0.36636,0.28976 -0.51822,0.50263 -0.15186,0.21288 -0.27223,0.45542 -0.36169,0.72733 -0.0874,0.2719 -0.13122,0.55518 -0.13122,0.85026 0,0.30774 0.0664,0.55356 0.19961,0.73693 0.13315,0.18338 0.31645,0.27475 0.54944,0.27475 0.18931,0 0.3798,-0.0608 0.5712,-0.18304 0.19345,-0.12224 0.35985,-0.27739 0.49922,-0.46497 0.0624,-0.0822 0.10197,-0.1474 0.11859,-0.19585 0.0188,-0.0506 0.0215,-0.0895 0.01,-0.11695 -0.0104,-0.0295 -0.0302,-0.0539 -0.0592,-0.0729 -0.0395,-0.0317 -0.0874,-0.0389 -0.14348,-0.022 -0.0541,0.0169 -0.12166,0.0791 -0.20279,0.18663 -0.1269,0.14967 -0.25918,0.276 -0.39647,0.37929 -0.13523,0.10326 -0.26385,0.15499 -0.38659,0.15499 -0.11649,0 -0.21425,-0.059 -0.29329,-0.17703 -0.0791,-0.11802 -0.11858,-0.25713 -0.11858,-0.41732 0,-0.04 7.2e-4,-0.0794 0.003,-0.11735 0.002,-0.04 0.006,-0.079 0.01,-0.11695 0.1165,-0.0612 0.25987,-0.13357 0.43045,-0.21787 0.17268,-0.0864 0.32039,-0.16434 0.44312,-0.23389 0.0915,-0.0527 0.19469,-0.11389 0.30912,-0.18344 0.11648,-0.0695 0.22861,-0.14856 0.33677,-0.2371 0.10818,-0.0906 0.19768,-0.19077 0.2684,-0.30036 0.0708,-0.11173 0.10634,-0.23408 0.10634,-0.36687 0,-0.18127 -0.0565,-0.32257 -0.1688,-0.42374 -0.11025,-0.10116 -0.26298,-0.15178 -0.45852,-0.15178 z m 3.30773,0 c -0.23091,0 -0.43683,0.0718 -0.61782,0.21507 -0.1789,0.14332 -0.37658,0.37927 -0.59292,0.7081 0.0124,-0.1602 0.01,-0.3015 -0.01,-0.42374 -0.0167,-0.12436 -0.0519,-0.2234 -0.10593,-0.29717 -0.0541,-0.0758 -0.12884,-0.121 -0.22453,-0.13578 -0.17683,-0.0253 -0.32277,0.002 -0.43719,0.0821 -0.11233,0.0801 -0.21402,0.19519 -0.30554,0.34483 -0.0499,0.0843 -0.0949,0.16113 -0.1344,0.23069 -0.0395,0.0675 -0.0592,0.11697 -0.0592,0.14859 0,0.0527 0.0137,0.0927 0.0407,0.12015 0.0291,0.0274 0.0643,0.0412 0.10594,0.0412 0.0417,0 0.0783,-0.016 0.1095,-0.0477 0.0333,-0.0316 0.0717,-0.0851 0.11542,-0.16101 l 0.053,-0.0889 c 0.0687,-0.12225 0.13012,-0.20964 0.1842,-0.26233 0.0561,-0.0527 0.1194,-0.0789 0.19014,-0.0789 0.0437,0 0.0749,0.0294 0.0937,0.0885 0.0187,0.0568 0.0269,0.12974 0.025,0.21828 0,0.0865 -0.006,0.17709 -0.0158,0.27193 -0.0104,0.0927 -0.0215,0.17465 -0.034,0.24631 l -0.31227,1.79586 c -0.0104,0.0675 7.6e-4,0.1192 0.0344,0.155 0.0333,0.0337 0.0729,0.0505 0.11859,0.0505 0.0541,0 0.10189,-0.0167 0.14349,-0.0505 0.0417,-0.0337 0.0674,-0.0865 0.0778,-0.15819 l 0.27473,-1.58399 c 0.25379,-0.37307 0.47949,-0.648 0.67712,-0.82505 0.19763,-0.17916 0.38989,-0.26875 0.5771,-0.26875 0.14772,0 0.2559,0.0433 0.32455,0.12977 0.0707,0.0843 0.11348,0.18625 0.12806,0.30639 0.0167,0.12014 0.0155,0.23523 -0.003,0.34483 l -0.14665,0.84426 c -0.0354,0.19813 -0.0562,0.3751 -0.0624,0.53108 -0.004,0.15597 0.008,0.28849 0.0344,0.39809 0.0291,0.1075 0.0751,0.18982 0.13756,0.24672 0.0645,0.0568 0.14857,0.0853 0.25258,0.0853 0.15602,0 0.28898,-0.0345 0.39924,-0.10414 0.11026,-0.0696 0.21016,-0.17806 0.29962,-0.3256 0.0499,-0.0843 0.0939,-0.16043 0.13124,-0.22788 0.0395,-0.0674 0.0592,-0.11696 0.0592,-0.14858 0,-0.0548 -0.0137,-0.096 -0.0407,-0.12337 -0.0269,-0.0273 -0.0611,-0.0408 -0.10276,-0.0408 -0.0417,0 -0.079,0.0156 -0.11227,0.0473 -0.0312,0.0317 -0.069,0.0855 -0.11264,0.16141 l -0.053,0.0885 c -0.0708,0.12225 -0.13722,0.20964 -0.19963,0.26233 -0.0604,0.0527 -0.12572,0.0789 -0.19645,0.0789 -0.0582,0 -0.0957,-0.0462 -0.11226,-0.13898 -0.0146,-0.0927 -0.0179,-0.20126 -0.01,-0.3256 0.0104,-0.12437 0.0237,-0.23398 0.0403,-0.32882 l 0.16562,-0.96441 c 0.0333,-0.19181 0.0251,-0.37386 -0.025,-0.5467 -0.0479,-0.17282 -0.13626,-0.31303 -0.26524,-0.42052 -0.12689,-0.10959 -0.29439,-0.16461 -0.5024,-0.16461 z m 12.55027,0 c -0.21428,0 -0.41912,0.0623 -0.61467,0.18663 -0.19347,0.12226 -0.36635,0.28976 -0.51822,0.50263 -0.15186,0.21288 -0.27224,0.45542 -0.36168,0.72733 -0.0874,0.2719 -0.13124,0.55518 -0.13124,0.85026 0,0.30774 0.0665,0.55356 0.19963,0.73693 0.13314,0.18338 0.31645,0.27475 0.54944,0.27475 0.1893,0 0.3794,-0.0608 0.57078,-0.18304 0.19348,-0.12224 0.36027,-0.27739 0.49964,-0.46497 0.0624,-0.0822 0.10156,-0.1474 0.1182,-0.19585 0.0188,-0.0506 0.022,-0.0895 0.01,-0.11695 -0.0104,-0.0295 -0.0302,-0.0539 -0.0592,-0.0729 -0.0395,-0.0317 -0.0874,-0.0389 -0.14348,-0.022 -0.0541,0.0169 -0.12165,0.0791 -0.20278,0.18663 -0.12691,0.14967 -0.25918,0.276 -0.39647,0.37929 -0.13522,0.10326 -0.26424,0.15499 -0.38699,0.15499 -0.1165,0 -0.21425,-0.059 -0.2933,-0.17703 -0.0791,-0.11802 -0.11858,-0.25713 -0.11858,-0.41732 0,-0.04 7.6e-4,-0.0794 0.003,-0.11735 0.002,-0.04 0.006,-0.079 0.01,-0.11695 0.11649,-0.0612 0.25987,-0.13357 0.43046,-0.21787 0.17266,-0.0864 0.32038,-0.16434 0.44311,-0.23389 0.0915,-0.0527 0.1947,-0.11389 0.30911,-0.18344 0.11649,-0.0695 0.22861,-0.14856 0.33678,-0.2371 0.10818,-0.0906 0.19767,-0.19077 0.2684,-0.30036 0.0708,-0.11173 0.10633,-0.23408 0.10633,-0.36687 0,-0.18127 -0.0565,-0.32257 -0.16879,-0.42374 -0.11025,-0.10116 -0.26298,-0.15178 -0.45853,-0.15178 z m 7.63253,0 c -0.21427,0 -0.41911,0.0623 -0.61467,0.18663 -0.19346,0.12226 -0.36635,0.28976 -0.51822,0.50263 -0.15185,0.21288 -0.27223,0.45542 -0.36168,0.72733 -0.0874,0.2719 -0.13124,0.55518 -0.13124,0.85026 0,0.30774 0.0665,0.55356 0.19962,0.73693 0.13315,0.18338 0.31646,0.27475 0.54946,0.27475 0.1893,0 0.37939,-0.0608 0.57079,-0.18304 0.19345,-0.12224 0.36025,-0.27739 0.49963,-0.46497 0.0624,-0.0822 0.10196,-0.1474 0.11858,-0.19585 0.0188,-0.0506 0.0215,-0.0895 0.01,-0.11695 -0.0104,-0.0295 -0.0301,-0.0539 -0.0592,-0.0729 -0.0395,-0.0317 -0.0874,-0.0389 -0.1435,-0.022 -0.0541,0.0169 -0.12165,0.0791 -0.20278,0.18663 -0.1269,0.14967 -0.25916,0.276 -0.39647,0.37929 -0.13521,0.10326 -0.26424,0.15499 -0.38698,0.15499 -0.11649,0 -0.21425,-0.059 -0.2933,-0.17703 -0.0791,-0.11802 -0.11858,-0.25713 -0.11858,-0.41732 0,-0.04 7.6e-4,-0.0794 0.003,-0.11735 0.002,-0.04 0.006,-0.079 0.01,-0.11695 0.11649,-0.0612 0.25987,-0.13357 0.43046,-0.21787 0.17267,-0.0864 0.32039,-0.16434 0.44312,-0.23389 0.0915,-0.0527 0.1947,-0.11389 0.30911,-0.18344 0.11649,-0.0695 0.2286,-0.14856 0.33678,-0.2371 0.10817,-0.0906 0.19766,-0.19077 0.2684,-0.30036 0.0708,-0.11173 0.10633,-0.23408 0.10633,-0.36687 0,-0.18127 -0.0565,-0.32257 -0.16879,-0.42374 -0.11025,-0.10116 -0.263,-0.15178 -0.45852,-0.15178 z m -15.6647,0.0569 c -0.0978,0 -0.156,0.0201 -0.17471,0.06 -0.0189,0.038 -0.0303,0.0697 -0.0344,0.095 l -0.33994,1.93803 c -0.0604,0.34356 -0.0186,0.61778 0.12491,0.82224 0.14353,0.20445 0.36816,0.30639 0.67395,0.30639 0.18931,0 0.36722,-0.0651 0.53364,-0.19584 0.16642,-0.1328 0.36193,-0.37095 0.5866,-0.71451 -0.0208,0.2719 0.002,0.48275 0.0684,0.6324 0.0666,0.14753 0.18517,0.22108 0.35575,0.22108 0.15394,0 0.28622,-0.0345 0.39648,-0.10414 0.11025,-0.0696 0.21018,-0.17807 0.29963,-0.32561 0.0499,-0.0843 0.0935,-0.16043 0.13083,-0.22787 0.0395,-0.0674 0.0592,-0.11698 0.0592,-0.1486 0,-0.0548 -0.0133,-0.096 -0.0403,-0.12336 -0.0271,-0.0273 -0.0616,-0.0408 -0.10317,-0.0408 -0.0417,0 -0.079,0.0156 -0.11225,0.0473 -0.0312,0.0316 -0.0686,0.0855 -0.11227,0.1614 l -0.053,0.0885 c -0.0708,0.12226 -0.1376,0.20965 -0.20001,0.26233 -0.0604,0.0527 -0.12573,0.0789 -0.19646,0.0789 -0.0457,0 -0.0781,-0.0284 -0.0968,-0.0853 -0.0187,-0.059 -0.0292,-0.13146 -0.0312,-0.21787 0,-0.0885 0.006,-0.17921 0.0158,-0.27195 0.0104,-0.0927 0.0219,-0.17394 0.0344,-0.2435 l 0.3182,-1.84632 c 0.006,-0.0359 0.002,-0.073 -0.0154,-0.11096 -0.0146,-0.0379 -0.0628,-0.0569 -0.14389,-0.0569 -0.0956,0 -0.15499,0.0244 -0.17788,0.0729 -0.0208,0.0484 -0.0331,0.0841 -0.0371,0.10732 l -0.28105,1.60924 c -0.23923,0.36254 -0.45017,0.63565 -0.63324,0.81903 -0.18307,0.18338 -0.36097,0.27514 -0.53364,0.27514 -0.18098,0 -0.31109,-0.075 -0.39014,-0.22467 -0.0791,-0.15176 -0.0999,-0.336 -0.0624,-0.5531 l 0.33402,-1.93203 c 0.006,-0.0358 1.3e-4,-0.0737 -0.0186,-0.11375 -0.0166,-0.04 -0.0649,-0.06 -0.14388,-0.06 z m 5.29878,0 c -0.17059,0 -0.34849,0.0801 -0.53363,0.2403 -0.18515,0.16019 -0.36631,0.39215 -0.54313,0.69568 0.0187,-0.17284 0.0198,-0.32579 0.003,-0.45859 -0.0146,-0.1349 -0.0498,-0.24231 -0.10593,-0.3224 -0.0541,-0.0822 -0.131,-0.1306 -0.23084,-0.14538 -0.17683,-0.0253 -0.32278,0.002 -0.43718,0.0821 -0.11235,0.0801 -0.21404,0.19518 -0.30556,0.34484 -0.0499,0.0843 -0.0949,0.16113 -0.13439,0.23069 -0.0396,0.0674 -0.0592,0.11696 -0.0592,0.14858 0,0.0527 0.0137,0.0927 0.0407,0.12016 0.0291,0.0273 0.0643,0.0412 0.10592,0.0412 0.0417,0 0.0783,-0.016 0.10951,-0.0477 0.0333,-0.0317 0.0718,-0.0851 0.11541,-0.16101 l 0.053,-0.0889 c 0.0687,-0.12226 0.13011,-0.20964 0.1842,-0.26233 0.0562,-0.0527 0.11941,-0.0789 0.19012,-0.0789 0.0437,0 0.0749,0.0294 0.0937,0.0885 0.0187,0.0568 0.0269,0.12974 0.025,0.21827 0,0.0865 -0.006,0.17709 -0.0154,0.27193 -0.0104,0.0927 -0.0219,0.17465 -0.0343,0.24632 l -0.31227,1.79586 c -0.0104,0.0675 7.6e-4,0.11919 0.0343,0.155 0.0333,0.0337 0.0729,0.0505 0.11859,0.0505 v 4e-4 c 0.0541,0 0.10227,-0.0172 0.14388,-0.0508 0.0417,-0.0337 0.0674,-0.0862 0.0779,-0.15779 l 0.26522,-1.52713 c 0.19763,-0.30352 0.36511,-0.5344 0.50241,-0.69247 0.13938,-0.1602 0.25474,-0.26872 0.34626,-0.32561 0.0937,-0.059 0.16876,-0.0885 0.22492,-0.0885 0.052,0 0.10092,0.023 0.14666,0.0693 0.0478,0.0443 0.0996,0.0898 0.15574,0.13618 0.0561,0.0463 0.12481,0.0693 0.20594,0.0693 0.0478,0 0.11256,-0.01 0.19369,-0.0285 0.0832,-0.0211 0.16337,-0.0557 0.24033,-0.10414 0.0479,-0.0295 0.0891,-0.0579 0.12451,-0.0853 0.0353,-0.0294 0.0628,-0.0612 0.0814,-0.0949 0.0208,-0.0337 0.0312,-0.0716 0.0312,-0.11375 0,-0.0506 -0.0191,-0.0866 -0.0565,-0.10773 -0.0353,-0.021 -0.0799,-0.0272 -0.13401,-0.0188 -0.0541,0.009 -0.10905,0.0314 -0.16522,0.0693 -0.0312,0.0232 -0.0772,0.0509 -0.13756,0.0825 -0.0604,0.0316 -0.11638,0.0473 -0.16839,0.0473 -0.077,0 -0.13193,-0.02 -0.16523,-0.0601 -0.0313,-0.0422 -0.0647,-0.0833 -0.10001,-0.12335 -0.0333,-0.04 -0.0915,-0.06 -0.17471,-0.06 z m 12.93724,0 c -0.22675,0 -0.45244,0.075 -0.67712,0.22469 -0.22259,0.14964 -0.41918,0.36228 -0.58977,0.6384 -0.17058,0.27611 -0.29027,0.60493 -0.35891,0.98643 -0.0499,0.28244 -0.0554,0.52716 -0.0158,0.73373 0.0417,0.20446 0.11459,0.36248 0.2186,0.47419 0.1061,0.1096 0.22971,0.16421 0.37117,0.16421 0.16227,0 0.33408,-0.0674 0.51507,-0.20225 0.18097,-0.13701 0.35888,-0.32125 0.53363,-0.5531 0.17474,-0.23396 0.33179,-0.49652 0.47117,-0.78739 l -0.0439,0.23069 c -0.0728,0.39415 -0.0821,0.70184 -0.0281,0.92315 0.0562,0.22132 0.18844,0.33203 0.39647,0.33203 0.15603,0 0.28899,-0.0345 0.39924,-0.10414 0.11025,-0.0696 0.21018,-0.17806 0.29962,-0.3256 0.0499,-0.0843 0.0938,-0.16044 0.13125,-0.22788 0.0395,-0.0674 0.0592,-0.11697 0.0592,-0.14859 0,-0.0548 -0.0137,-0.0959 -0.0407,-0.12337 -0.027,-0.0273 -0.0611,-0.0408 -0.10277,-0.0408 -0.0417,0 -0.0794,0.0156 -0.11265,0.0473 -0.0313,0.0316 -0.0686,0.0855 -0.11227,0.1614 l -0.0531,0.0885 c -0.0708,0.12225 -0.13721,0.20964 -0.19961,0.26233 -0.0604,0.0527 -0.12613,0.0789 -0.19685,0.0789 -0.0457,0 -0.0777,-0.0284 -0.0964,-0.0853 -0.0188,-0.059 -0.0292,-0.13146 -0.0312,-0.21788 0,-0.0885 0.006,-0.17921 0.0154,-0.27194 0.0104,-0.0927 0.0219,-0.17394 0.0344,-0.2435 l 0.30278,-1.74861 c 0.0145,-0.0822 0.0163,-0.1463 0.006,-0.19264 -0.0104,-0.0484 -0.0414,-0.0729 -0.0933,-0.0729 z m -28.52407,0.022 c -0.0687,0 -0.12039,0.0255 -0.15574,0.0761 -0.0353,0.0484 -0.0803,0.12311 -0.1344,0.22428 -0.27875,0.54168 -0.52815,1.00014 -0.74866,1.37533 -0.21844,0.37518 -0.41217,0.65997 -0.58068,0.85388 -0.16642,0.19391 -0.31197,0.29076 -0.43679,0.29076 -0.12066,0 -0.21516,-0.0506 -0.28381,-0.15179 -0.0687,-0.10117 -0.0863,-0.24864 -0.0529,-0.44255 l 0.34943,-1.99812 c 0.0146,-0.0822 0.008,-0.14008 -0.0217,-0.17381 -0.0291,-0.0358 -0.0687,-0.0536 -0.11859,-0.0536 -0.0479,0 -0.095,0.0167 -0.14072,0.0505 -0.0437,0.0337 -0.0717,0.0865 -0.0842,0.15819 l -0.36169,2.02977 c -0.0271,0.15596 -0.0231,0.30343 0.0122,0.44255 0.0374,0.13699 0.10502,0.2488 0.20278,0.33522 0.0978,0.0843 0.22179,0.12617 0.37158,0.12617 0.2413,0 0.47202,-0.0957 0.69253,-0.28757 0.22259,-0.1918 0.45438,-0.48276 0.6957,-0.87269 0.24338,-0.38994 0.51619,-0.88228 0.81784,-1.47667 l 0.0529,-0.11055 0.5368,0.12336 c 0.0915,0.021 0.16951,0.0167 0.23401,-0.0127 0.0645,-0.0317 0.0964,-0.0917 0.0964,-0.18024 0,-0.0443 -0.0123,-0.0821 -0.0371,-0.11374 -0.025,-0.0316 -0.0727,-0.0545 -0.14349,-0.0693 -0.19763,-0.038 -0.35075,-0.0667 -0.45892,-0.0857 -0.10609,-0.0211 -0.18081,-0.0356 -0.22452,-0.044 -0.0437,-0.009 -0.0699,-0.0127 -0.0783,-0.0127 z m 2.40926,0.25632 c 0.0977,0 0.17359,0.0306 0.22768,0.0917 0.0541,0.0589 0.081,0.11799 0.081,0.17701 0,0.0738 -0.0407,0.15498 -0.12174,0.24352 -0.0811,0.0885 -0.18713,0.18029 -0.3182,0.27514 -0.13106,0.0927 -0.27051,0.18342 -0.41822,0.27194 -0.0936,0.0527 -0.19313,0.10621 -0.29922,0.16101 -0.1061,0.0548 -0.20425,0.10653 -0.2937,0.15499 0.0561,-0.24661 0.14173,-0.47419 0.25614,-0.68286 0.1165,-0.20866 0.25054,-0.37616 0.4024,-0.50263 0.15395,-0.12646 0.31533,-0.18984 0.48384,-0.18984 z m 15.85798,0 c 0.0978,0 0.1736,0.0306 0.22769,0.0917 0.0541,0.0589 0.081,0.11799 0.081,0.17701 0,0.0738 -0.0406,0.15498 -0.12174,0.24352 -0.0811,0.0885 -0.18715,0.18029 -0.31821,0.27514 -0.13106,0.0927 -0.27051,0.18342 -0.41822,0.27194 -0.0936,0.0527 -0.19352,0.10621 -0.29961,0.16101 -0.1061,0.0548 -0.20385,0.10653 -0.29331,0.15499 0.0561,-0.24661 0.14174,-0.47419 0.25615,-0.68286 0.1165,-0.20866 0.25055,-0.37616 0.4024,-0.50263 0.15394,-0.12646 0.31533,-0.18984 0.48382,-0.18984 z m 7.63254,0 c 0.0978,0 0.17359,0.0306 0.22769,0.0917 0.0541,0.0589 0.081,0.11799 0.081,0.17701 0,0.0738 -0.0407,0.15498 -0.12175,0.24352 -0.0811,0.0885 -0.18715,0.18029 -0.3182,0.27514 -0.13106,0.0927 -0.27051,0.18342 -0.41822,0.27194 -0.0936,0.0527 -0.19353,0.10621 -0.29962,0.16101 -0.1061,0.0548 -0.20384,0.10653 -0.29329,0.15499 0.0562,-0.24661 0.14173,-0.47419 0.25613,-0.68286 0.1165,-0.20866 0.25055,-0.37616 0.4024,-0.50263 0.15394,-0.12646 0.31533,-0.18984 0.48383,-0.18984 z m -30.70524,0.0445 h 0.5775 l -0.0751,0.43614 c -0.11026,0.24873 -0.22887,0.49743 -0.35577,0.74615 -0.1269,0.24871 -0.25769,0.47629 -0.39291,0.68285 -0.13314,0.20445 -0.26865,0.36906 -0.40596,0.49342 -0.13729,0.12437 -0.27241,0.18624 -0.40556,0.18624 -0.13106,0 -0.22232,-0.0918 -0.27433,-0.27514 -0.0519,-0.18338 -0.053,-0.42989 -0.003,-0.73974 0.0541,-0.30352 0.14141,-0.57005 0.26208,-0.79981 0.12065,-0.22974 0.27122,-0.4089 0.4522,-0.53747 0.181,-0.12858 0.38801,-0.19264 0.621,-0.19264 z m 33.36036,0 h 0.67396 l -0.0684,0.3917 c -0.17475,0.40679 -0.35983,0.77457 -0.55537,1.10337 -0.19556,0.32671 -0.38605,0.58598 -0.57119,0.77779 -0.18307,0.1918 -0.34513,0.28796 -0.48659,0.28796 -0.0998,0 -0.18326,-0.0972 -0.24983,-0.29116 -0.0666,-0.19392 -0.0737,-0.44771 -0.0217,-0.76177 0.0561,-0.30563 0.15284,-0.57107 0.29014,-0.7966 0.13728,-0.22553 0.29326,-0.40071 0.46801,-0.52505 0.17683,-0.12436 0.3504,-0.18624 0.52098,-0.18624 z" /></g></svg>
